<svg width="350" height="230" viewBox="0 0 350 230" fill="none" xmlns="http://www.w3.org/2000/svg">
<rect width="350" height="230" fill="#BB1720"/>
<g clip-path="url(#clip0_7_24)">
<path d="M249.565 100.421L258.497 124C255.864 123.625 253.233 123.155 250.552 122.733L245.521 109.703L240.35 121.656C237.812 121.235 235.319 121.093 232.781 120.765L241.855 100.14L233.627 79H241.244L245.851 90.8113L250.788 79H258.497L249.565 100.421ZM227.61 79H220.698V119.875C222.955 120.016 225.305 120.108 227.61 120.39V79ZM214.726 119.405C208.427 118.984 202.127 118.61 195.687 118.468V79H202.737V111.812C206.782 111.906 210.825 112.234 214.726 112.421V119.405ZM188.164 94.9842V102.015H178.527V117.999H171.568V79H191.314V86.0311H178.527V94.9842H188.164ZM159.72 86.0311V118.375C157.369 118.375 154.972 118.375 152.668 118.468V86.0311H145.38V79H167.054V86.0311H159.72ZM137.764 102.389C134.662 102.389 130.994 102.389 128.361 102.531V112.984C132.498 112.702 136.636 112.374 140.82 112.234V118.984L121.309 120.532V79H140.82V86.0311H128.361V95.4987C131.088 95.4987 135.272 95.3581 137.764 95.3581V102.389ZM98.6946 98.4526V123.014C96.1563 123.297 93.8987 123.625 91.5015 124V79H98.225L107.392 104.547V79H114.444V121.093C111.953 121.516 109.414 121.656 106.734 122.03L98.6946 98.4526Z" fill="white"/>
</g>
<g filter="url(#filter0_d_7_24)">
<path d="M130.775 142.506L126.211 143.48C126.002 142.907 125.72 142.419 125.365 142.016C125.009 141.605 124.594 141.28 124.122 141.039C123.649 140.799 123.13 140.648 122.565 140.587C122.007 140.525 121.423 140.559 120.812 140.689C119.707 140.925 118.804 141.404 118.101 142.128C117.397 142.845 116.931 143.772 116.702 144.91C116.471 146.042 116.514 147.347 116.829 148.827C117.154 150.348 117.652 151.578 118.325 152.516C119.004 153.453 119.81 154.098 120.742 154.451C121.675 154.804 122.679 154.866 123.756 154.636C124.36 154.507 124.902 154.308 125.382 154.038C125.869 153.767 126.281 153.436 126.619 153.045C126.955 152.646 127.207 152.196 127.376 151.695C127.552 151.193 127.632 150.646 127.614 150.054L132.182 149.101C132.273 150.106 132.18 151.113 131.901 152.124C131.629 153.126 131.173 154.07 130.534 154.954C129.9 155.83 129.082 156.593 128.081 157.242C127.085 157.883 125.903 158.35 124.534 158.642C122.631 159.048 120.837 158.981 119.153 158.44C117.476 157.897 116.029 156.902 114.813 155.455C113.603 154.007 112.751 152.123 112.256 149.803C111.759 147.476 111.774 145.403 112.301 143.584C112.828 141.765 113.75 140.268 115.068 139.093C116.384 137.912 117.98 137.121 119.856 136.721C121.092 136.457 122.275 136.386 123.405 136.508C124.542 136.628 125.591 136.935 126.553 137.427C127.514 137.911 128.353 138.578 129.072 139.427C129.797 140.274 130.365 141.301 130.775 142.506Z" fill="black"/>
<path d="M142.018 155.18L139.685 133.487L144.271 132.994L146.198 150.905L155.498 149.905L155.905 153.686L142.018 155.18Z" fill="black"/>
<path d="M184.556 142.095C184.561 144.474 184.114 146.499 183.215 148.17C182.324 149.841 181.105 151.118 179.558 152.002C178.019 152.879 176.287 153.319 174.362 153.323C172.423 153.327 170.682 152.89 169.139 152.013C167.596 151.135 166.376 149.863 165.477 148.195C164.579 146.528 164.128 144.508 164.123 142.136C164.118 139.757 164.561 137.732 165.453 136.061C166.344 134.39 167.56 133.117 169.099 132.24C170.639 131.356 172.378 130.912 174.317 130.908C176.241 130.904 177.975 131.341 179.518 132.219C181.068 133.089 182.292 134.358 183.191 136.025C184.096 137.693 184.551 139.716 184.556 142.095ZM179.879 142.104C179.876 140.563 179.643 139.264 179.179 138.207C178.722 137.149 178.078 136.348 177.246 135.803C176.414 135.258 175.44 134.986 174.325 134.989C173.21 134.991 172.237 135.266 171.408 135.815C170.578 136.363 169.933 137.167 169.473 138.226C169.021 139.286 168.796 140.586 168.8 142.127C168.803 143.668 169.033 144.967 169.489 146.025C169.953 147.082 170.601 147.883 171.433 148.428C172.265 148.974 173.239 149.245 174.354 149.243C175.469 149.241 176.441 148.965 177.271 148.417C178.101 147.868 178.742 147.064 179.194 146.005C179.654 144.946 179.882 143.646 179.879 142.104Z" fill="black"/>
<path d="M213.69 133.881L211.225 155.56L207.267 155.109L199.387 140.393L199.228 140.375L197.676 154.019L193.093 153.498L195.558 131.819L199.58 132.277L207.387 146.974L207.578 146.996L209.128 133.362L213.69 133.881Z" fill="black"/>
<path d="M220.45 157.159L225.176 135.859L239.529 139.043L238.705 142.756L228.856 140.571L227.73 145.646L236.84 147.668L236.017 151.381L226.906 149.359L225.777 154.445L235.668 156.64L234.844 160.353L220.45 157.159Z" fill="black"/>
</g>
<defs>
<filter id="filter0_d_7_24" x="105.916" y="130.888" width="137.654" height="37.8756" filterUnits="userSpaceOnUse" color-interpolation-filters="sRGB">
<feFlood flood-opacity="0" result="BackgroundImageFix"/>
<feColorMatrix in="SourceAlpha" type="matrix" values="0 0 0 0 0 0 0 0 0 0 0 0 0 0 0 0 0 0 127 0" result="hardAlpha"/>
<feOffset dy="4"/>
<feGaussianBlur stdDeviation="2"/>
<feComposite in2="hardAlpha" operator="out"/>
<feColorMatrix type="matrix" values="0 0 0 0 0 0 0 0 0 0 0 0 0 0 0 0 0 0 0.3 0"/>
<feBlend mode="normal" in2="BackgroundImageFix" result="effect1_dropShadow_7_24"/>
<feBlend mode="normal" in="SourceGraphic" in2="effect1_dropShadow_7_24" result="shape"/>
</filter>
<clipPath id="clip0_7_24">
<rect width="168" height="45" fill="white" transform="translate(91 79)"/>
</clipPath>
</defs>
</svg>
