<svg width="350" height="230" viewBox="0 0 350 230" fill="none" xmlns="http://www.w3.org/2000/svg">
<rect width="350" height="230" fill="#00856F"/>
<path d="M101.375 128H94.642V106.182H101.673C103.79 106.182 105.601 106.619 107.107 107.492C108.612 108.359 109.766 109.605 110.569 111.232C111.371 112.851 111.773 114.79 111.773 117.048C111.773 119.321 111.368 121.278 110.558 122.918C109.749 124.552 108.57 125.809 107.021 126.69C105.473 127.563 103.591 128 101.375 128ZM97.2841 125.656H101.205C103.009 125.656 104.504 125.308 105.69 124.612C106.876 123.916 107.76 122.925 108.342 121.64C108.925 120.354 109.216 118.824 109.216 117.048C109.216 115.287 108.928 113.771 108.353 112.499C107.778 111.221 106.918 110.241 105.775 109.559C104.631 108.87 103.207 108.526 101.503 108.526H97.2841V125.656ZM122.511 128.341C121.034 128.341 119.738 127.989 118.623 127.286C117.515 126.583 116.648 125.599 116.023 124.335C115.406 123.071 115.097 121.594 115.097 119.903C115.097 118.199 115.406 116.711 116.023 115.44C116.648 114.168 117.515 113.181 118.623 112.478C119.738 111.775 121.034 111.423 122.511 111.423C123.989 111.423 125.281 111.775 126.389 112.478C127.504 113.181 128.371 114.168 128.989 115.44C129.614 116.711 129.926 118.199 129.926 119.903C129.926 121.594 129.614 123.071 128.989 124.335C128.371 125.599 127.504 126.583 126.389 127.286C125.281 127.989 123.989 128.341 122.511 128.341ZM122.511 126.082C123.634 126.082 124.557 125.795 125.281 125.219C126.006 124.644 126.542 123.888 126.89 122.95C127.238 122.013 127.412 120.997 127.412 119.903C127.412 118.81 127.238 117.79 126.89 116.846C126.542 115.901 126.006 115.138 125.281 114.555C124.557 113.973 123.634 113.682 122.511 113.682C121.389 113.682 120.466 113.973 119.741 114.555C119.017 115.138 118.481 115.901 118.133 116.846C117.785 117.79 117.611 118.81 117.611 119.903C117.611 120.997 117.785 122.013 118.133 122.95C118.481 123.888 119.017 124.644 119.741 125.219C120.466 125.795 121.389 126.082 122.511 126.082ZM140.412 128.341C138.878 128.341 137.557 127.979 136.449 127.254C135.341 126.53 134.488 125.532 133.892 124.261C133.295 122.989 132.997 121.537 132.997 119.903C132.997 118.241 133.302 116.775 133.913 115.504C134.531 114.225 135.39 113.227 136.491 112.51C137.599 111.786 138.892 111.423 140.369 111.423C141.52 111.423 142.557 111.636 143.48 112.062C144.403 112.489 145.16 113.085 145.749 113.852C146.339 114.619 146.704 115.514 146.846 116.537H144.332C144.14 115.791 143.714 115.131 143.054 114.555C142.4 113.973 141.52 113.682 140.412 113.682C139.432 113.682 138.572 113.937 137.834 114.449C137.102 114.953 136.53 115.667 136.118 116.59C135.714 117.506 135.511 118.582 135.511 119.818C135.511 121.082 135.71 122.183 136.108 123.121C136.513 124.058 137.081 124.786 137.812 125.305C138.551 125.823 139.417 126.082 140.412 126.082C141.065 126.082 141.658 125.969 142.191 125.741C142.724 125.514 143.175 125.188 143.544 124.761C143.913 124.335 144.176 123.824 144.332 123.227H146.846C146.704 124.193 146.353 125.063 145.792 125.837C145.238 126.604 144.503 127.215 143.586 127.67C142.677 128.117 141.619 128.341 140.412 128.341ZM157.638 111.636V113.767H149.158V111.636H157.638ZM151.63 107.716H154.144V123.312C154.144 124.023 154.247 124.555 154.453 124.911C154.666 125.259 154.936 125.493 155.263 125.614C155.596 125.727 155.948 125.784 156.317 125.784C156.594 125.784 156.822 125.77 156.999 125.741C157.177 125.706 157.319 125.678 157.425 125.656L157.937 127.915C157.766 127.979 157.528 128.043 157.223 128.107C156.917 128.178 156.53 128.213 156.062 128.213C155.351 128.213 154.655 128.06 153.974 127.755C153.299 127.45 152.738 126.984 152.29 126.359C151.85 125.734 151.63 124.946 151.63 123.994V107.716ZM167.892 128.341C166.415 128.341 165.119 127.989 164.004 127.286C162.896 126.583 162.029 125.599 161.404 124.335C160.786 123.071 160.477 121.594 160.477 119.903C160.477 118.199 160.786 116.711 161.404 115.44C162.029 114.168 162.896 113.181 164.004 112.478C165.119 111.775 166.415 111.423 167.892 111.423C169.369 111.423 170.662 111.775 171.77 112.478C172.885 113.181 173.752 114.168 174.369 115.44C174.994 116.711 175.307 118.199 175.307 119.903C175.307 121.594 174.994 123.071 174.369 124.335C173.752 125.599 172.885 126.583 171.77 127.286C170.662 127.989 169.369 128.341 167.892 128.341ZM167.892 126.082C169.014 126.082 169.938 125.795 170.662 125.219C171.387 124.644 171.923 123.888 172.271 122.95C172.619 122.013 172.793 120.997 172.793 119.903C172.793 118.81 172.619 117.79 172.271 116.846C171.923 115.901 171.387 115.138 170.662 114.555C169.938 113.973 169.014 113.682 167.892 113.682C166.77 113.682 165.847 113.973 165.122 114.555C164.398 115.138 163.862 115.901 163.514 116.846C163.166 117.79 162.992 118.81 162.992 119.903C162.992 120.997 163.166 122.013 163.514 122.95C163.862 123.888 164.398 124.644 165.122 125.219C165.847 125.795 166.77 126.082 167.892 126.082ZM179.145 128V111.636H181.574V114.108H181.744C182.043 113.298 182.582 112.641 183.364 112.137C184.145 111.633 185.026 111.381 186.006 111.381C186.19 111.381 186.421 111.384 186.698 111.391C186.975 111.398 187.185 111.409 187.327 111.423V113.98C187.241 113.959 187.046 113.927 186.741 113.884C186.442 113.835 186.126 113.81 185.793 113.81C184.997 113.81 184.287 113.977 183.662 114.31C183.044 114.637 182.554 115.092 182.192 115.674C181.837 116.249 181.659 116.906 181.659 117.645V128H179.145ZM209.153 113.82H204.487C204.401 113.217 204.227 112.68 203.965 112.212C203.702 111.736 203.365 111.331 202.953 110.997C202.541 110.663 202.065 110.408 201.525 110.23C200.992 110.053 200.414 109.964 199.789 109.964C198.659 109.964 197.676 110.244 196.838 110.805C195.999 111.359 195.35 112.169 194.888 113.234C194.426 114.293 194.195 115.578 194.195 117.091C194.195 118.646 194.426 119.953 194.888 121.011C195.357 122.07 196.01 122.869 196.848 123.408C197.686 123.948 198.656 124.218 199.757 124.218C200.374 124.218 200.946 124.136 201.472 123.973C202.004 123.81 202.477 123.572 202.889 123.259C203.301 122.94 203.642 122.553 203.911 122.098C204.188 121.643 204.38 121.125 204.487 120.543L209.153 120.564C209.032 121.565 208.73 122.531 208.247 123.462C207.771 124.385 207.129 125.212 206.319 125.944C205.517 126.668 204.558 127.244 203.443 127.67C202.335 128.089 201.081 128.298 199.682 128.298C197.736 128.298 195.996 127.858 194.462 126.977C192.935 126.097 191.727 124.822 190.84 123.153C189.959 121.484 189.519 119.463 189.519 117.091C189.519 114.712 189.966 112.688 190.861 111.018C191.756 109.349 192.97 108.078 194.504 107.205C196.039 106.324 197.764 105.884 199.682 105.884C200.946 105.884 202.118 106.061 203.198 106.416C204.284 106.771 205.247 107.29 206.085 107.972C206.923 108.646 207.605 109.474 208.13 110.454C208.663 111.434 209.004 112.556 209.153 113.82ZM217.042 128.309C215.998 128.309 215.067 128.128 214.251 127.766C213.434 127.396 212.787 126.853 212.312 126.136C211.843 125.411 211.608 124.509 211.608 123.43C211.608 122.521 211.775 121.757 212.109 121.139C212.443 120.521 212.898 120.024 213.473 119.648C214.048 119.271 214.702 118.987 215.433 118.795C216.172 118.604 216.946 118.469 217.756 118.391C218.707 118.291 219.474 118.199 220.057 118.114C220.639 118.021 221.062 117.886 221.324 117.709C221.587 117.531 221.719 117.268 221.719 116.92V116.857C221.719 116.182 221.506 115.66 221.079 115.29C220.66 114.921 220.064 114.737 219.29 114.737C218.473 114.737 217.823 114.918 217.34 115.28C216.857 115.635 216.537 116.082 216.381 116.622L212.184 116.281C212.397 115.287 212.816 114.428 213.441 113.703C214.066 112.972 214.872 112.411 215.859 112.02C216.854 111.622 218.004 111.423 219.311 111.423C220.22 111.423 221.09 111.53 221.921 111.743C222.759 111.956 223.501 112.286 224.148 112.734C224.801 113.181 225.316 113.756 225.692 114.46C226.069 115.156 226.257 115.99 226.257 116.963V128H221.953V125.731H221.825C221.562 126.242 221.211 126.693 220.77 127.084C220.33 127.467 219.801 127.769 219.183 127.989C218.565 128.202 217.851 128.309 217.042 128.309ZM218.341 125.177C219.009 125.177 219.599 125.045 220.11 124.783C220.621 124.513 221.023 124.151 221.314 123.696C221.605 123.241 221.751 122.727 221.751 122.151V120.415C221.608 120.507 221.413 120.592 221.165 120.67C220.923 120.741 220.65 120.809 220.344 120.873C220.039 120.93 219.733 120.983 219.428 121.033C219.123 121.075 218.846 121.114 218.597 121.15C218.064 121.228 217.599 121.352 217.202 121.523C216.804 121.693 216.495 121.924 216.275 122.215C216.055 122.499 215.944 122.854 215.944 123.281C215.944 123.898 216.168 124.371 216.616 124.697C217.07 125.017 217.645 125.177 218.341 125.177ZM229.778 128V111.636H234.178V114.491H234.348C234.646 113.476 235.147 112.709 235.85 112.19C236.553 111.665 237.363 111.402 238.279 111.402C238.507 111.402 238.752 111.416 239.014 111.445C239.277 111.473 239.508 111.512 239.707 111.562V115.589C239.494 115.525 239.199 115.468 238.823 115.418C238.446 115.369 238.102 115.344 237.789 115.344C237.122 115.344 236.525 115.489 235.999 115.781C235.481 116.065 235.069 116.462 234.764 116.974C234.465 117.485 234.316 118.075 234.316 118.742V128H229.778ZM248.749 128.32C247.066 128.32 245.617 127.979 244.402 127.297C243.195 126.608 242.265 125.635 241.611 124.378C240.958 123.114 240.631 121.619 240.631 119.893C240.631 118.21 240.958 116.732 241.611 115.461C242.265 114.19 243.184 113.199 244.37 112.489C245.564 111.778 246.963 111.423 248.568 111.423C249.647 111.423 250.652 111.597 251.583 111.945C252.52 112.286 253.337 112.801 254.033 113.49C254.736 114.179 255.283 115.045 255.674 116.089C256.064 117.126 256.26 118.341 256.26 119.733V120.979H242.442V118.167H251.988C251.988 117.513 251.846 116.935 251.561 116.43C251.277 115.926 250.883 115.532 250.379 115.248C249.882 114.957 249.303 114.811 248.642 114.811C247.953 114.811 247.343 114.971 246.81 115.29C246.284 115.603 245.873 116.026 245.574 116.558C245.276 117.084 245.123 117.67 245.116 118.316V120.99C245.116 121.8 245.265 122.499 245.564 123.089C245.869 123.678 246.299 124.133 246.853 124.452C247.407 124.772 248.064 124.932 248.824 124.932C249.328 124.932 249.789 124.861 250.208 124.719C250.627 124.577 250.986 124.364 251.284 124.08C251.583 123.795 251.81 123.447 251.966 123.036L256.164 123.312C255.951 124.321 255.514 125.202 254.853 125.955C254.2 126.7 253.355 127.283 252.318 127.702C251.288 128.114 250.098 128.32 248.749 128.32Z" fill="white"/>
</svg>
